<svg width="22" height="22" fill="none" xmlns="http://www.w3.org/2000/svg"><path d="M15.904 8.296l-2.145 6.912c-.513 1.64-2.814 1.668-3.355.036l-.641-1.897a1.737 1.737 0 00-1.11-1.11l-1.906-.641c-1.623-.541-1.595-2.86.046-3.355l6.911-2.154c1.357-.413 2.631.861 2.2 2.209z" stroke="#EF7F1A" stroke-linecap="round" stroke-linejoin="round"/><path d="M8.25 20.167h5.5c4.583 0 6.416-1.834 6.416-6.417v-5.5c0-4.583-1.833-6.417-6.416-6.417h-5.5c-4.584 0-6.417 1.834-6.417 6.417v5.5c0 4.583 1.833 6.417 6.417 6.417z" stroke="#EF7F1A" stroke-linecap="round" stroke-linejoin="round"/></svg>