<svg width="20" height="20" fill="none" xmlns="http://www.w3.org/2000/svg"><path d="M0 20c.215-.786.42-1.532.623-2.279.246-.9.495-1.801.733-2.704a.43.43 0 00-.032-.29c-.96-1.742-1.377-3.611-1.21-5.586.24-2.828 1.482-5.15 3.677-6.95A9.506 9.506 0 018.017.198c4.638-.922 9.1 1.45 11.01 5.624.714 1.56.984 3.2.851 4.903-.333 4.282-3.5 7.926-7.693 8.861-2.364.527-4.625.218-6.783-.876a.477.477 0 00-.308-.032c-1.614.418-3.227.84-4.839 1.262L0 20zm2.394-2.367l.239-.058c.876-.23 1.753-.454 2.63-.693a.55.55 0 01.464.07c1.91 1.133 3.954 1.468 6.122.98 4.634-1.044 7.439-5.927 6.01-10.453-1.3-4.123-5.417-6.512-9.652-5.594a8.224 8.224 0 00-6.434 7.677c-.073 1.596.278 3.107 1.112 4.471.265.432.311.793.156 1.263-.249.76-.43 1.541-.647 2.337z" fill="#EF7F1A"/><path d="M4.94 7.683c.014-.828.338-1.51.922-2.078a.898.898 0 01.655-.271c.139 0 .279.02.417.007.292-.03.46.114.562.363.274.658.558 1.312.813 1.977a.55.55 0 01-.05.426c-.188.29-.393.57-.616.835-.132.164-.143.31-.036.49.809 1.358 1.933 2.345 3.406 2.928.2.079.363.047.5-.126.245-.31.5-.61.74-.926.137-.182.299-.25.503-.156.71.334 1.414.668 2.114 1.018.074.037.142.161.145.248.028.736-.186 1.353-.843 1.783-.817.534-1.675.58-2.588.324-2.34-.657-4.078-2.12-5.473-4.052-.46-.638-.883-1.296-1.061-2.076-.056-.232-.075-.475-.11-.714z" fill="#EF7F1A"/></svg>