<svg width="29" height="38" fill="none" xmlns="http://www.w3.org/2000/svg"><path fill-rule="evenodd" clip-rule="evenodd" d="M7.65 36.049c1.193.07 2.217.434 3.704.39a10.317 10.317 0 003.414-.664c2.363-.912 3.191-1.925 4.505-3.689.157 1.078-.909 2.381-1.39 2.755-1.893 1.47-4.21 2.067-6.734 1.959-2.11-.09-2.614-.585-3.499-.751zM2.063 18.085c2.09 3.73 7.155 4.895 10.83 7.475.408.287.625.483.99.83 1.047.997 1.488 2.87.706 3.948-.293.55-.523.895-1.109 1.317-1.718 1.237-4.217.81-5.927.156-1.134-.433-2.198-1.1-3.053-1.8-.681-.559-2.062-1.773-2.45-2.506-.962.51-1.818 1.157-2.046 2.427-.172 3.63 4.756 6.693 8.239 7.357 3.397.649 8.392.567 10.829-2.167.264-.295.615-.857.877-1.124.707-.934.86-2.91.808-4.065-.11-2.478-2.774-4.419-4.72-5.494l-4.11-2.26c-.338-.181-.542-.265-.857-.457-1.925-1.17-4.641-2.336-6.423-3.791-.904-.739-1.841-1.558-2.622-2.434-.328-.367-.82-1.346-1.087-1.542 0 1.314.492 3.001 1.125 4.13z" fill="#F8720A"/><path fill-rule="evenodd" clip-rule="evenodd" d="M6.98 10.103c-.781-1.03-.324-2.53.384-3.273 2.004-2.102 5.934-2.248 8.687-1.52.512.136 1.159.43 1.516.501-.733.052-2.407-.332-3.489-.321-2.955.029-6.766 1.122-7.097 4.613zM4.984 8.19c-.195 1.66.18 2.923 1.05 3.9.735.824 1.823 1.624 2.887 2.272.496.302 1.13.612 1.646.889 3.353 1.796 8.832 4.708 11.346 6.852.957.816 1.781 1.49 2.464 2.693 1.144 2.013.774 3.104 1.437 4.428 0-1.416.28-1.858-.058-3.684-.587-3.17-2.665-5.21-5.221-6.914-1.741-1.161-6.602-3.406-7.593-4.44-1.194-1.247-1.013-1.895-.98-2.861.482-1.833 2.518-2.747 4.865-2.338 2.559.445 3.304 1.408 4.84 2.452l.506-.687c.956-2.168.185-3.378-1.76-4.846-1.365-1.03-3.63-1.831-5.362-2.122-2.79-.469-5.468-.225-7.663 1.149-1.159.724-2.096 1.882-2.404 3.257z" fill="#fff"/><path fill-rule="evenodd" clip-rule="evenodd" d="M11.858.123l-.002.08c2.855 0 6.77.73 9.182 2.043.318.173.616.312.912.503 1.155.746 1.379.966 2.432 1.816.328.265.444.362.746.669.3.305.478.388.763.653.44.413.826 1.23 1.437 1.394.08-.295.337-.555.53-.786.237-.285.412-.51.583-.832-2.419-1.62-3.33-2.514-6.357-3.756-1.75-.719-5.09-1.782-7.39-1.907h-.815l-2.021.123z" fill="#F8720A"/></svg>