<svg width="22" height="22" viewBox="0 0 22 22" fill="none" xmlns="http://www.w3.org/2000/svg">
<path d="M15.9044 8.29589L13.7594 15.2075C13.2461 16.8484 10.9452 16.8759 10.4044 15.2442L9.76272 13.3467C9.58855 12.8242 9.17605 12.4026 8.65355 12.2376L6.74689 11.5959C5.12439 11.055 5.15189 8.73589 6.79272 8.24089L13.7044 6.08672C15.0611 5.67422 16.3352 6.94839 15.9044 8.29589Z" stroke="#EF7F1A" stroke-linecap="round" stroke-linejoin="round"/>
<path d="M8.24967 20.1666H13.7497C18.333 20.1666 20.1663 18.3333 20.1663 13.7499V8.24992C20.1663 3.66659 18.333 1.83325 13.7497 1.83325H8.24967C3.66634 1.83325 1.83301 3.66659 1.83301 8.24992V13.7499C1.83301 18.3333 3.66634 20.1666 8.24967 20.1666Z" stroke="#EF7F1A" stroke-linecap="round" stroke-linejoin="round"/>
</svg>
