<svg width="29" height="38" viewBox="0 0 29 38" fill="none" xmlns="http://www.w3.org/2000/svg">
<path fill-rule="evenodd" clip-rule="evenodd" d="M7.64996 36.0486C8.84345 36.1188 9.867 36.4835 11.3538 36.4387C12.5769 36.4018 13.7236 36.178 14.7679 35.7751C17.1314 34.8632 17.9591 33.8495 19.2731 32.086C19.4301 33.1645 18.3642 34.467 17.8828 34.8409C15.9903 36.3105 13.6738 36.9078 11.1492 36.7998C9.03946 36.7096 8.53529 36.2152 7.64996 36.0486ZM2.06298 18.0854C4.15297 21.8151 9.2181 22.9804 12.893 25.5604C13.301 25.8469 13.5176 26.0429 13.8827 26.3901C14.9303 27.3865 15.3709 29.2607 14.5893 30.3381C14.2959 30.8887 14.0657 31.2329 13.48 31.6546C11.7616 32.8916 9.263 32.4655 7.55289 31.8115C6.41943 31.378 5.35492 30.7105 4.50006 30.0104C3.81862 29.4523 2.43752 28.2379 2.04993 27.5054C1.08811 28.0144 0.231743 28.6623 0.00440277 29.9324C-0.168005 33.5622 4.76029 36.6247 8.24277 37.2895C11.6399 37.938 16.6352 37.8556 19.0719 35.1224C19.3356 34.8265 19.6873 34.2649 19.9489 33.998C20.6556 33.0642 20.8091 31.0871 20.7575 29.9331C20.6465 27.4547 17.9828 25.5142 16.0373 24.4394L11.9268 22.1791C11.5885 21.9975 11.3851 21.9137 11.0695 21.7219C9.14483 20.5517 6.42903 19.386 4.64718 17.9307C3.74331 17.1925 2.80555 16.3726 2.02452 15.4971C1.69653 15.1295 1.20564 14.1513 0.937566 13.9549C0.937566 15.2692 1.43014 16.9561 2.06298 18.0854Z" fill="#F8720A"/>
<path fill-rule="evenodd" clip-rule="evenodd" d="M6.98054 10.1026C6.19884 9.0733 6.65628 7.57295 7.36405 6.83033C9.368 4.72767 13.2978 4.58218 16.0511 5.31086C16.5626 5.44627 17.2095 5.7394 17.5665 5.81098C16.8338 5.86262 15.1596 5.47909 14.0785 5.48971C11.123 5.51872 7.31159 6.61237 6.98054 10.1026ZM4.983 8.19104C4.78804 9.85127 5.16322 11.1143 6.03328 12.0906C6.76771 12.9147 7.85561 13.7153 8.91983 14.3632C9.41619 14.6654 10.0495 14.9751 10.5655 15.2515C13.9187 17.0476 19.3981 19.9603 21.9122 22.1036C22.8695 22.9198 23.6934 23.5949 24.3763 24.797C25.5198 26.8099 25.1499 27.9014 25.8126 29.2247C25.8126 27.8088 26.0926 27.3675 25.7547 25.5411C25.1682 22.3714 23.09 20.3311 20.534 18.6269C18.7927 17.4659 13.9323 15.221 12.941 14.1862C11.7473 12.9401 11.928 12.2917 11.9619 11.3258C12.4427 9.49343 14.4793 8.57949 16.8262 8.98764C19.3847 9.43265 20.1304 10.3959 21.6665 11.44L22.1721 10.7533C23.1276 8.58513 22.3567 7.37547 20.4111 5.90705C19.0466 4.87718 16.7819 4.07556 15.0503 3.78479C12.2595 3.31611 9.58221 3.56043 7.38678 4.93382C6.22837 5.65847 5.29055 6.81637 4.983 8.19104Z" fill="white"/>
<path fill-rule="evenodd" clip-rule="evenodd" d="M11.858 0.122835L11.8564 0.20226C14.711 0.20226 18.6262 0.932085 21.0379 2.24554C21.3557 2.41866 21.6545 2.55782 21.9502 2.74897C23.1047 3.49548 23.3289 3.71518 24.3816 4.56471C24.7104 4.83005 24.8261 4.92666 25.1282 5.23394C25.4277 5.53866 25.6064 5.6215 25.8906 5.8872C26.3319 6.29967 26.7169 7.11763 27.3284 7.2809C27.4072 6.98585 27.665 6.72641 27.8574 6.49524C28.095 6.20962 28.2702 5.98529 28.4408 5.6629C26.0223 4.04343 25.1109 3.14936 22.0845 1.9068C20.3343 1.18816 16.9946 0.124728 14.6938 0H13.8789L11.858 0.122835Z" fill="#F8720A"/>
</svg>
